<?xml version="1.0" encoding="utf-8"?>
<svg xmlns="http://www.w3.org/2000/svg" xmlns:xlink="http://www.w3.org/1999/xlink" style="margin: auto; background: none; display: block; shape-rendering: auto;" width="300px" height="300px" viewBox="0 0 100 100" preserveAspectRatio="xMidYMid">
<g transform="rotate(0 50 50)">
  <rect x="44.5" y="28" rx="5.5" ry="5" width="11" height="10" fill="#f90000">
    <animate attributeName="opacity" values="1;0" keyTimes="0;1" dur="0.5714285714285714s" begin="-0.5657142857142857s" repeatCount="indefinite"></animate>
  </rect>
</g><g transform="rotate(3.6 50 50)">
  <rect x="44.5" y="28" rx="5.5" ry="5" width="11" height="10" fill="#f90000">
    <animate attributeName="opacity" values="1;0" keyTimes="0;1" dur="0.5714285714285714s" begin="-0.56s" repeatCount="indefinite"></animate>
  </rect>
</g><g transform="rotate(7.2 50 50)">
  <rect x="44.5" y="28" rx="5.5" ry="5" width="11" height="10" fill="#f90000">
    <animate attributeName="opacity" values="1;0" keyTimes="0;1" dur="0.5714285714285714s" begin="-0.5542857142857143s" repeatCount="indefinite"></animate>
  </rect>
</g><g transform="rotate(10.8 50 50)">
  <rect x="44.5" y="28" rx="5.5" ry="5" width="11" height="10" fill="#f90000">
    <animate attributeName="opacity" values="1;0" keyTimes="0;1" dur="0.5714285714285714s" begin="-0.5485714285714286s" repeatCount="indefinite"></animate>
  </rect>
</g><g transform="rotate(14.4 50 50)">
  <rect x="44.5" y="28" rx="5.5" ry="5" width="11" height="10" fill="#f90000">
    <animate attributeName="opacity" values="1;0" keyTimes="0;1" dur="0.5714285714285714s" begin="-0.5428571428571428s" repeatCount="indefinite"></animate>
  </rect>
</g><g transform="rotate(18 50 50)">
  <rect x="44.5" y="28" rx="5.5" ry="5" width="11" height="10" fill="#f90000">
    <animate attributeName="opacity" values="1;0" keyTimes="0;1" dur="0.5714285714285714s" begin="-0.5371428571428571s" repeatCount="indefinite"></animate>
  </rect>
</g><g transform="rotate(21.6 50 50)">
  <rect x="44.5" y="28" rx="5.5" ry="5" width="11" height="10" fill="#f90000">
    <animate attributeName="opacity" values="1;0" keyTimes="0;1" dur="0.5714285714285714s" begin="-0.5314285714285715s" repeatCount="indefinite"></animate>
  </rect>
</g><g transform="rotate(25.2 50 50)">
  <rect x="44.5" y="28" rx="5.5" ry="5" width="11" height="10" fill="#f90000">
    <animate attributeName="opacity" values="1;0" keyTimes="0;1" dur="0.5714285714285714s" begin="-0.5257142857142857s" repeatCount="indefinite"></animate>
  </rect>
</g><g transform="rotate(28.8 50 50)">
  <rect x="44.5" y="28" rx="5.5" ry="5" width="11" height="10" fill="#f90000">
    <animate attributeName="opacity" values="1;0" keyTimes="0;1" dur="0.5714285714285714s" begin="-0.52s" repeatCount="indefinite"></animate>
  </rect>
</g><g transform="rotate(32.4 50 50)">
  <rect x="44.5" y="28" rx="5.5" ry="5" width="11" height="10" fill="#f90000">
    <animate attributeName="opacity" values="1;0" keyTimes="0;1" dur="0.5714285714285714s" begin="-0.5142857142857142s" repeatCount="indefinite"></animate>
  </rect>
</g><g transform="rotate(36 50 50)">
  <rect x="44.5" y="28" rx="5.5" ry="5" width="11" height="10" fill="#f90000">
    <animate attributeName="opacity" values="1;0" keyTimes="0;1" dur="0.5714285714285714s" begin="-0.5085714285714286s" repeatCount="indefinite"></animate>
  </rect>
</g><g transform="rotate(39.6 50 50)">
  <rect x="44.5" y="28" rx="5.5" ry="5" width="11" height="10" fill="#f90000">
    <animate attributeName="opacity" values="1;0" keyTimes="0;1" dur="0.5714285714285714s" begin="-0.5028571428571429s" repeatCount="indefinite"></animate>
  </rect>
</g><g transform="rotate(43.2 50 50)">
  <rect x="44.5" y="28" rx="5.5" ry="5" width="11" height="10" fill="#f90000">
    <animate attributeName="opacity" values="1;0" keyTimes="0;1" dur="0.5714285714285714s" begin="-0.49714285714285716s" repeatCount="indefinite"></animate>
  </rect>
</g><g transform="rotate(46.8 50 50)">
  <rect x="44.5" y="28" rx="5.5" ry="5" width="11" height="10" fill="#f90000">
    <animate attributeName="opacity" values="1;0" keyTimes="0;1" dur="0.5714285714285714s" begin="-0.49142857142857144s" repeatCount="indefinite"></animate>
  </rect>
</g><g transform="rotate(50.4 50 50)">
  <rect x="44.5" y="28" rx="5.5" ry="5" width="11" height="10" fill="#f90000">
    <animate attributeName="opacity" values="1;0" keyTimes="0;1" dur="0.5714285714285714s" begin="-0.4857142857142857s" repeatCount="indefinite"></animate>
  </rect>
</g><g transform="rotate(54 50 50)">
  <rect x="44.5" y="28" rx="5.5" ry="5" width="11" height="10" fill="#f90000">
    <animate attributeName="opacity" values="1;0" keyTimes="0;1" dur="0.5714285714285714s" begin="-0.48s" repeatCount="indefinite"></animate>
  </rect>
</g><g transform="rotate(57.6 50 50)">
  <rect x="44.5" y="28" rx="5.5" ry="5" width="11" height="10" fill="#f90000">
    <animate attributeName="opacity" values="1;0" keyTimes="0;1" dur="0.5714285714285714s" begin="-0.4742857142857143s" repeatCount="indefinite"></animate>
  </rect>
</g><g transform="rotate(61.2 50 50)">
  <rect x="44.5" y="28" rx="5.5" ry="5" width="11" height="10" fill="#f90000">
    <animate attributeName="opacity" values="1;0" keyTimes="0;1" dur="0.5714285714285714s" begin="-0.4685714285714286s" repeatCount="indefinite"></animate>
  </rect>
</g><g transform="rotate(64.8 50 50)">
  <rect x="44.5" y="28" rx="5.5" ry="5" width="11" height="10" fill="#f90000">
    <animate attributeName="opacity" values="1;0" keyTimes="0;1" dur="0.5714285714285714s" begin="-0.46285714285714286s" repeatCount="indefinite"></animate>
  </rect>
</g><g transform="rotate(68.4 50 50)">
  <rect x="44.5" y="28" rx="5.5" ry="5" width="11" height="10" fill="#f90000">
    <animate attributeName="opacity" values="1;0" keyTimes="0;1" dur="0.5714285714285714s" begin="-0.45714285714285713s" repeatCount="indefinite"></animate>
  </rect>
</g><g transform="rotate(72 50 50)">
  <rect x="44.5" y="28" rx="5.5" ry="5" width="11" height="10" fill="#f90000">
    <animate attributeName="opacity" values="1;0" keyTimes="0;1" dur="0.5714285714285714s" begin="-0.4514285714285714s" repeatCount="indefinite"></animate>
  </rect>
</g><g transform="rotate(75.6 50 50)">
  <rect x="44.5" y="28" rx="5.5" ry="5" width="11" height="10" fill="#f90000">
    <animate attributeName="opacity" values="1;0" keyTimes="0;1" dur="0.5714285714285714s" begin="-0.44571428571428573s" repeatCount="indefinite"></animate>
  </rect>
</g><g transform="rotate(79.2 50 50)">
  <rect x="44.5" y="28" rx="5.5" ry="5" width="11" height="10" fill="#f90000">
    <animate attributeName="opacity" values="1;0" keyTimes="0;1" dur="0.5714285714285714s" begin="-0.44s" repeatCount="indefinite"></animate>
  </rect>
</g><g transform="rotate(82.8 50 50)">
  <rect x="44.5" y="28" rx="5.5" ry="5" width="11" height="10" fill="#f90000">
    <animate attributeName="opacity" values="1;0" keyTimes="0;1" dur="0.5714285714285714s" begin="-0.4342857142857143s" repeatCount="indefinite"></animate>
  </rect>
</g><g transform="rotate(86.4 50 50)">
  <rect x="44.5" y="28" rx="5.5" ry="5" width="11" height="10" fill="#f90000">
    <animate attributeName="opacity" values="1;0" keyTimes="0;1" dur="0.5714285714285714s" begin="-0.42857142857142855s" repeatCount="indefinite"></animate>
  </rect>
</g><g transform="rotate(90 50 50)">
  <rect x="44.5" y="28" rx="5.5" ry="5" width="11" height="10" fill="#f90000">
    <animate attributeName="opacity" values="1;0" keyTimes="0;1" dur="0.5714285714285714s" begin="-0.4228571428571429s" repeatCount="indefinite"></animate>
  </rect>
</g><g transform="rotate(93.6 50 50)">
  <rect x="44.5" y="28" rx="5.5" ry="5" width="11" height="10" fill="#f90000">
    <animate attributeName="opacity" values="1;0" keyTimes="0;1" dur="0.5714285714285714s" begin="-0.41714285714285715s" repeatCount="indefinite"></animate>
  </rect>
</g><g transform="rotate(97.2 50 50)">
  <rect x="44.5" y="28" rx="5.5" ry="5" width="11" height="10" fill="#f90000">
    <animate attributeName="opacity" values="1;0" keyTimes="0;1" dur="0.5714285714285714s" begin="-0.4114285714285714s" repeatCount="indefinite"></animate>
  </rect>
</g><g transform="rotate(100.8 50 50)">
  <rect x="44.5" y="28" rx="5.5" ry="5" width="11" height="10" fill="#f90000">
    <animate attributeName="opacity" values="1;0" keyTimes="0;1" dur="0.5714285714285714s" begin="-0.4057142857142857s" repeatCount="indefinite"></animate>
  </rect>
</g><g transform="rotate(104.4 50 50)">
  <rect x="44.5" y="28" rx="5.5" ry="5" width="11" height="10" fill="#f90000">
    <animate attributeName="opacity" values="1;0" keyTimes="0;1" dur="0.5714285714285714s" begin="-0.4s" repeatCount="indefinite"></animate>
  </rect>
</g><g transform="rotate(108 50 50)">
  <rect x="44.5" y="28" rx="5.5" ry="5" width="11" height="10" fill="#f90000">
    <animate attributeName="opacity" values="1;0" keyTimes="0;1" dur="0.5714285714285714s" begin="-0.3942857142857143s" repeatCount="indefinite"></animate>
  </rect>
</g><g transform="rotate(111.6 50 50)">
  <rect x="44.5" y="28" rx="5.5" ry="5" width="11" height="10" fill="#f90000">
    <animate attributeName="opacity" values="1;0" keyTimes="0;1" dur="0.5714285714285714s" begin="-0.38857142857142857s" repeatCount="indefinite"></animate>
  </rect>
</g><g transform="rotate(115.2 50 50)">
  <rect x="44.5" y="28" rx="5.5" ry="5" width="11" height="10" fill="#f90000">
    <animate attributeName="opacity" values="1;0" keyTimes="0;1" dur="0.5714285714285714s" begin="-0.38285714285714284s" repeatCount="indefinite"></animate>
  </rect>
</g><g transform="rotate(118.8 50 50)">
  <rect x="44.5" y="28" rx="5.5" ry="5" width="11" height="10" fill="#f90000">
    <animate attributeName="opacity" values="1;0" keyTimes="0;1" dur="0.5714285714285714s" begin="-0.37714285714285717s" repeatCount="indefinite"></animate>
  </rect>
</g><g transform="rotate(122.4 50 50)">
  <rect x="44.5" y="28" rx="5.5" ry="5" width="11" height="10" fill="#f90000">
    <animate attributeName="opacity" values="1;0" keyTimes="0;1" dur="0.5714285714285714s" begin="-0.37142857142857144s" repeatCount="indefinite"></animate>
  </rect>
</g><g transform="rotate(126 50 50)">
  <rect x="44.5" y="28" rx="5.5" ry="5" width="11" height="10" fill="#f90000">
    <animate attributeName="opacity" values="1;0" keyTimes="0;1" dur="0.5714285714285714s" begin="-0.3657142857142857s" repeatCount="indefinite"></animate>
  </rect>
</g><g transform="rotate(129.6 50 50)">
  <rect x="44.5" y="28" rx="5.5" ry="5" width="11" height="10" fill="#f90000">
    <animate attributeName="opacity" values="1;0" keyTimes="0;1" dur="0.5714285714285714s" begin="-0.36s" repeatCount="indefinite"></animate>
  </rect>
</g><g transform="rotate(133.2 50 50)">
  <rect x="44.5" y="28" rx="5.5" ry="5" width="11" height="10" fill="#f90000">
    <animate attributeName="opacity" values="1;0" keyTimes="0;1" dur="0.5714285714285714s" begin="-0.35428571428571426s" repeatCount="indefinite"></animate>
  </rect>
</g><g transform="rotate(136.8 50 50)">
  <rect x="44.5" y="28" rx="5.5" ry="5" width="11" height="10" fill="#f90000">
    <animate attributeName="opacity" values="1;0" keyTimes="0;1" dur="0.5714285714285714s" begin="-0.3485714285714286s" repeatCount="indefinite"></animate>
  </rect>
</g><g transform="rotate(140.4 50 50)">
  <rect x="44.5" y="28" rx="5.5" ry="5" width="11" height="10" fill="#f90000">
    <animate attributeName="opacity" values="1;0" keyTimes="0;1" dur="0.5714285714285714s" begin="-0.34285714285714286s" repeatCount="indefinite"></animate>
  </rect>
</g><g transform="rotate(144 50 50)">
  <rect x="44.5" y="28" rx="5.5" ry="5" width="11" height="10" fill="#f90000">
    <animate attributeName="opacity" values="1;0" keyTimes="0;1" dur="0.5714285714285714s" begin="-0.33714285714285713s" repeatCount="indefinite"></animate>
  </rect>
</g><g transform="rotate(147.6 50 50)">
  <rect x="44.5" y="28" rx="5.5" ry="5" width="11" height="10" fill="#f90000">
    <animate attributeName="opacity" values="1;0" keyTimes="0;1" dur="0.5714285714285714s" begin="-0.3314285714285714s" repeatCount="indefinite"></animate>
  </rect>
</g><g transform="rotate(151.2 50 50)">
  <rect x="44.5" y="28" rx="5.5" ry="5" width="11" height="10" fill="#f90000">
    <animate attributeName="opacity" values="1;0" keyTimes="0;1" dur="0.5714285714285714s" begin="-0.32571428571428573s" repeatCount="indefinite"></animate>
  </rect>
</g><g transform="rotate(154.8 50 50)">
  <rect x="44.5" y="28" rx="5.5" ry="5" width="11" height="10" fill="#f90000">
    <animate attributeName="opacity" values="1;0" keyTimes="0;1" dur="0.5714285714285714s" begin="-0.32s" repeatCount="indefinite"></animate>
  </rect>
</g><g transform="rotate(158.4 50 50)">
  <rect x="44.5" y="28" rx="5.5" ry="5" width="11" height="10" fill="#f90000">
    <animate attributeName="opacity" values="1;0" keyTimes="0;1" dur="0.5714285714285714s" begin="-0.3142857142857143s" repeatCount="indefinite"></animate>
  </rect>
</g><g transform="rotate(162 50 50)">
  <rect x="44.5" y="28" rx="5.5" ry="5" width="11" height="10" fill="#f90000">
    <animate attributeName="opacity" values="1;0" keyTimes="0;1" dur="0.5714285714285714s" begin="-0.30857142857142855s" repeatCount="indefinite"></animate>
  </rect>
</g><g transform="rotate(165.6 50 50)">
  <rect x="44.5" y="28" rx="5.5" ry="5" width="11" height="10" fill="#f90000">
    <animate attributeName="opacity" values="1;0" keyTimes="0;1" dur="0.5714285714285714s" begin="-0.3028571428571429s" repeatCount="indefinite"></animate>
  </rect>
</g><g transform="rotate(169.2 50 50)">
  <rect x="44.5" y="28" rx="5.5" ry="5" width="11" height="10" fill="#f90000">
    <animate attributeName="opacity" values="1;0" keyTimes="0;1" dur="0.5714285714285714s" begin="-0.29714285714285715s" repeatCount="indefinite"></animate>
  </rect>
</g><g transform="rotate(172.8 50 50)">
  <rect x="44.5" y="28" rx="5.5" ry="5" width="11" height="10" fill="#f90000">
    <animate attributeName="opacity" values="1;0" keyTimes="0;1" dur="0.5714285714285714s" begin="-0.2914285714285714s" repeatCount="indefinite"></animate>
  </rect>
</g><g transform="rotate(176.4 50 50)">
  <rect x="44.5" y="28" rx="5.5" ry="5" width="11" height="10" fill="#f90000">
    <animate attributeName="opacity" values="1;0" keyTimes="0;1" dur="0.5714285714285714s" begin="-0.2857142857142857s" repeatCount="indefinite"></animate>
  </rect>
</g><g transform="rotate(180 50 50)">
  <rect x="44.5" y="28" rx="5.5" ry="5" width="11" height="10" fill="#f90000">
    <animate attributeName="opacity" values="1;0" keyTimes="0;1" dur="0.5714285714285714s" begin="-0.28s" repeatCount="indefinite"></animate>
  </rect>
</g><g transform="rotate(183.6 50 50)">
  <rect x="44.5" y="28" rx="5.5" ry="5" width="11" height="10" fill="#f90000">
    <animate attributeName="opacity" values="1;0" keyTimes="0;1" dur="0.5714285714285714s" begin="-0.2742857142857143s" repeatCount="indefinite"></animate>
  </rect>
</g><g transform="rotate(187.2 50 50)">
  <rect x="44.5" y="28" rx="5.5" ry="5" width="11" height="10" fill="#f90000">
    <animate attributeName="opacity" values="1;0" keyTimes="0;1" dur="0.5714285714285714s" begin="-0.26857142857142857s" repeatCount="indefinite"></animate>
  </rect>
</g><g transform="rotate(190.8 50 50)">
  <rect x="44.5" y="28" rx="5.5" ry="5" width="11" height="10" fill="#f90000">
    <animate attributeName="opacity" values="1;0" keyTimes="0;1" dur="0.5714285714285714s" begin="-0.26285714285714284s" repeatCount="indefinite"></animate>
  </rect>
</g><g transform="rotate(194.4 50 50)">
  <rect x="44.5" y="28" rx="5.5" ry="5" width="11" height="10" fill="#f90000">
    <animate attributeName="opacity" values="1;0" keyTimes="0;1" dur="0.5714285714285714s" begin="-0.2571428571428571s" repeatCount="indefinite"></animate>
  </rect>
</g><g transform="rotate(198 50 50)">
  <rect x="44.5" y="28" rx="5.5" ry="5" width="11" height="10" fill="#f90000">
    <animate attributeName="opacity" values="1;0" keyTimes="0;1" dur="0.5714285714285714s" begin="-0.25142857142857145s" repeatCount="indefinite"></animate>
  </rect>
</g><g transform="rotate(201.6 50 50)">
  <rect x="44.5" y="28" rx="5.5" ry="5" width="11" height="10" fill="#f90000">
    <animate attributeName="opacity" values="1;0" keyTimes="0;1" dur="0.5714285714285714s" begin="-0.24571428571428572s" repeatCount="indefinite"></animate>
  </rect>
</g><g transform="rotate(205.2 50 50)">
  <rect x="44.5" y="28" rx="5.5" ry="5" width="11" height="10" fill="#f90000">
    <animate attributeName="opacity" values="1;0" keyTimes="0;1" dur="0.5714285714285714s" begin="-0.24s" repeatCount="indefinite"></animate>
  </rect>
</g><g transform="rotate(208.8 50 50)">
  <rect x="44.5" y="28" rx="5.5" ry="5" width="11" height="10" fill="#f90000">
    <animate attributeName="opacity" values="1;0" keyTimes="0;1" dur="0.5714285714285714s" begin="-0.2342857142857143s" repeatCount="indefinite"></animate>
  </rect>
</g><g transform="rotate(212.4 50 50)">
  <rect x="44.5" y="28" rx="5.5" ry="5" width="11" height="10" fill="#f90000">
    <animate attributeName="opacity" values="1;0" keyTimes="0;1" dur="0.5714285714285714s" begin="-0.22857142857142856s" repeatCount="indefinite"></animate>
  </rect>
</g><g transform="rotate(216 50 50)">
  <rect x="44.5" y="28" rx="5.5" ry="5" width="11" height="10" fill="#f90000">
    <animate attributeName="opacity" values="1;0" keyTimes="0;1" dur="0.5714285714285714s" begin="-0.22285714285714286s" repeatCount="indefinite"></animate>
  </rect>
</g><g transform="rotate(219.6 50 50)">
  <rect x="44.5" y="28" rx="5.5" ry="5" width="11" height="10" fill="#f90000">
    <animate attributeName="opacity" values="1;0" keyTimes="0;1" dur="0.5714285714285714s" begin="-0.21714285714285714s" repeatCount="indefinite"></animate>
  </rect>
</g><g transform="rotate(223.2 50 50)">
  <rect x="44.5" y="28" rx="5.5" ry="5" width="11" height="10" fill="#f90000">
    <animate attributeName="opacity" values="1;0" keyTimes="0;1" dur="0.5714285714285714s" begin="-0.21142857142857144s" repeatCount="indefinite"></animate>
  </rect>
</g><g transform="rotate(226.8 50 50)">
  <rect x="44.5" y="28" rx="5.5" ry="5" width="11" height="10" fill="#f90000">
    <animate attributeName="opacity" values="1;0" keyTimes="0;1" dur="0.5714285714285714s" begin="-0.2057142857142857s" repeatCount="indefinite"></animate>
  </rect>
</g><g transform="rotate(230.4 50 50)">
  <rect x="44.5" y="28" rx="5.5" ry="5" width="11" height="10" fill="#f90000">
    <animate attributeName="opacity" values="1;0" keyTimes="0;1" dur="0.5714285714285714s" begin="-0.2s" repeatCount="indefinite"></animate>
  </rect>
</g><g transform="rotate(234 50 50)">
  <rect x="44.5" y="28" rx="5.5" ry="5" width="11" height="10" fill="#f90000">
    <animate attributeName="opacity" values="1;0" keyTimes="0;1" dur="0.5714285714285714s" begin="-0.19428571428571428s" repeatCount="indefinite"></animate>
  </rect>
</g><g transform="rotate(237.6 50 50)">
  <rect x="44.5" y="28" rx="5.5" ry="5" width="11" height="10" fill="#f90000">
    <animate attributeName="opacity" values="1;0" keyTimes="0;1" dur="0.5714285714285714s" begin="-0.18857142857142858s" repeatCount="indefinite"></animate>
  </rect>
</g><g transform="rotate(241.2 50 50)">
  <rect x="44.5" y="28" rx="5.5" ry="5" width="11" height="10" fill="#f90000">
    <animate attributeName="opacity" values="1;0" keyTimes="0;1" dur="0.5714285714285714s" begin="-0.18285714285714286s" repeatCount="indefinite"></animate>
  </rect>
</g><g transform="rotate(244.8 50 50)">
  <rect x="44.5" y="28" rx="5.5" ry="5" width="11" height="10" fill="#f90000">
    <animate attributeName="opacity" values="1;0" keyTimes="0;1" dur="0.5714285714285714s" begin="-0.17714285714285713s" repeatCount="indefinite"></animate>
  </rect>
</g><g transform="rotate(248.4 50 50)">
  <rect x="44.5" y="28" rx="5.5" ry="5" width="11" height="10" fill="#f90000">
    <animate attributeName="opacity" values="1;0" keyTimes="0;1" dur="0.5714285714285714s" begin="-0.17142857142857143s" repeatCount="indefinite"></animate>
  </rect>
</g><g transform="rotate(252 50 50)">
  <rect x="44.5" y="28" rx="5.5" ry="5" width="11" height="10" fill="#f90000">
    <animate attributeName="opacity" values="1;0" keyTimes="0;1" dur="0.5714285714285714s" begin="-0.1657142857142857s" repeatCount="indefinite"></animate>
  </rect>
</g><g transform="rotate(255.6 50 50)">
  <rect x="44.5" y="28" rx="5.5" ry="5" width="11" height="10" fill="#f90000">
    <animate attributeName="opacity" values="1;0" keyTimes="0;1" dur="0.5714285714285714s" begin="-0.16s" repeatCount="indefinite"></animate>
  </rect>
</g><g transform="rotate(259.2 50 50)">
  <rect x="44.5" y="28" rx="5.5" ry="5" width="11" height="10" fill="#f90000">
    <animate attributeName="opacity" values="1;0" keyTimes="0;1" dur="0.5714285714285714s" begin="-0.15428571428571428s" repeatCount="indefinite"></animate>
  </rect>
</g><g transform="rotate(262.8 50 50)">
  <rect x="44.5" y="28" rx="5.5" ry="5" width="11" height="10" fill="#f90000">
    <animate attributeName="opacity" values="1;0" keyTimes="0;1" dur="0.5714285714285714s" begin="-0.14857142857142858s" repeatCount="indefinite"></animate>
  </rect>
</g><g transform="rotate(266.4 50 50)">
  <rect x="44.5" y="28" rx="5.5" ry="5" width="11" height="10" fill="#f90000">
    <animate attributeName="opacity" values="1;0" keyTimes="0;1" dur="0.5714285714285714s" begin="-0.14285714285714285s" repeatCount="indefinite"></animate>
  </rect>
</g><g transform="rotate(270 50 50)">
  <rect x="44.5" y="28" rx="5.5" ry="5" width="11" height="10" fill="#f90000">
    <animate attributeName="opacity" values="1;0" keyTimes="0;1" dur="0.5714285714285714s" begin="-0.13714285714285715s" repeatCount="indefinite"></animate>
  </rect>
</g><g transform="rotate(273.6 50 50)">
  <rect x="44.5" y="28" rx="5.5" ry="5" width="11" height="10" fill="#f90000">
    <animate attributeName="opacity" values="1;0" keyTimes="0;1" dur="0.5714285714285714s" begin="-0.13142857142857142s" repeatCount="indefinite"></animate>
  </rect>
</g><g transform="rotate(277.2 50 50)">
  <rect x="44.5" y="28" rx="5.5" ry="5" width="11" height="10" fill="#f90000">
    <animate attributeName="opacity" values="1;0" keyTimes="0;1" dur="0.5714285714285714s" begin="-0.12571428571428572s" repeatCount="indefinite"></animate>
  </rect>
</g><g transform="rotate(280.8 50 50)">
  <rect x="44.5" y="28" rx="5.5" ry="5" width="11" height="10" fill="#f90000">
    <animate attributeName="opacity" values="1;0" keyTimes="0;1" dur="0.5714285714285714s" begin="-0.12s" repeatCount="indefinite"></animate>
  </rect>
</g><g transform="rotate(284.4 50 50)">
  <rect x="44.5" y="28" rx="5.5" ry="5" width="11" height="10" fill="#f90000">
    <animate attributeName="opacity" values="1;0" keyTimes="0;1" dur="0.5714285714285714s" begin="-0.11428571428571428s" repeatCount="indefinite"></animate>
  </rect>
</g><g transform="rotate(288 50 50)">
  <rect x="44.5" y="28" rx="5.5" ry="5" width="11" height="10" fill="#f90000">
    <animate attributeName="opacity" values="1;0" keyTimes="0;1" dur="0.5714285714285714s" begin="-0.10857142857142857s" repeatCount="indefinite"></animate>
  </rect>
</g><g transform="rotate(291.6 50 50)">
  <rect x="44.5" y="28" rx="5.5" ry="5" width="11" height="10" fill="#f90000">
    <animate attributeName="opacity" values="1;0" keyTimes="0;1" dur="0.5714285714285714s" begin="-0.10285714285714286s" repeatCount="indefinite"></animate>
  </rect>
</g><g transform="rotate(295.2 50 50)">
  <rect x="44.5" y="28" rx="5.5" ry="5" width="11" height="10" fill="#f90000">
    <animate attributeName="opacity" values="1;0" keyTimes="0;1" dur="0.5714285714285714s" begin="-0.09714285714285714s" repeatCount="indefinite"></animate>
  </rect>
</g><g transform="rotate(298.8 50 50)">
  <rect x="44.5" y="28" rx="5.5" ry="5" width="11" height="10" fill="#f90000">
    <animate attributeName="opacity" values="1;0" keyTimes="0;1" dur="0.5714285714285714s" begin="-0.09142857142857143s" repeatCount="indefinite"></animate>
  </rect>
</g><g transform="rotate(302.4 50 50)">
  <rect x="44.5" y="28" rx="5.5" ry="5" width="11" height="10" fill="#f90000">
    <animate attributeName="opacity" values="1;0" keyTimes="0;1" dur="0.5714285714285714s" begin="-0.08571428571428572s" repeatCount="indefinite"></animate>
  </rect>
</g><g transform="rotate(306 50 50)">
  <rect x="44.5" y="28" rx="5.5" ry="5" width="11" height="10" fill="#f90000">
    <animate attributeName="opacity" values="1;0" keyTimes="0;1" dur="0.5714285714285714s" begin="-0.08s" repeatCount="indefinite"></animate>
  </rect>
</g><g transform="rotate(309.6 50 50)">
  <rect x="44.5" y="28" rx="5.5" ry="5" width="11" height="10" fill="#f90000">
    <animate attributeName="opacity" values="1;0" keyTimes="0;1" dur="0.5714285714285714s" begin="-0.07428571428571429s" repeatCount="indefinite"></animate>
  </rect>
</g><g transform="rotate(313.2 50 50)">
  <rect x="44.5" y="28" rx="5.5" ry="5" width="11" height="10" fill="#f90000">
    <animate attributeName="opacity" values="1;0" keyTimes="0;1" dur="0.5714285714285714s" begin="-0.06857142857142857s" repeatCount="indefinite"></animate>
  </rect>
</g><g transform="rotate(316.8 50 50)">
  <rect x="44.5" y="28" rx="5.5" ry="5" width="11" height="10" fill="#f90000">
    <animate attributeName="opacity" values="1;0" keyTimes="0;1" dur="0.5714285714285714s" begin="-0.06285714285714286s" repeatCount="indefinite"></animate>
  </rect>
</g><g transform="rotate(320.4 50 50)">
  <rect x="44.5" y="28" rx="5.5" ry="5" width="11" height="10" fill="#f90000">
    <animate attributeName="opacity" values="1;0" keyTimes="0;1" dur="0.5714285714285714s" begin="-0.05714285714285714s" repeatCount="indefinite"></animate>
  </rect>
</g><g transform="rotate(324 50 50)">
  <rect x="44.5" y="28" rx="5.5" ry="5" width="11" height="10" fill="#f90000">
    <animate attributeName="opacity" values="1;0" keyTimes="0;1" dur="0.5714285714285714s" begin="-0.05142857142857143s" repeatCount="indefinite"></animate>
  </rect>
</g><g transform="rotate(327.6 50 50)">
  <rect x="44.5" y="28" rx="5.5" ry="5" width="11" height="10" fill="#f90000">
    <animate attributeName="opacity" values="1;0" keyTimes="0;1" dur="0.5714285714285714s" begin="-0.045714285714285714s" repeatCount="indefinite"></animate>
  </rect>
</g><g transform="rotate(331.2 50 50)">
  <rect x="44.5" y="28" rx="5.5" ry="5" width="11" height="10" fill="#f90000">
    <animate attributeName="opacity" values="1;0" keyTimes="0;1" dur="0.5714285714285714s" begin="-0.04s" repeatCount="indefinite"></animate>
  </rect>
</g><g transform="rotate(334.8 50 50)">
  <rect x="44.5" y="28" rx="5.5" ry="5" width="11" height="10" fill="#f90000">
    <animate attributeName="opacity" values="1;0" keyTimes="0;1" dur="0.5714285714285714s" begin="-0.03428571428571429s" repeatCount="indefinite"></animate>
  </rect>
</g><g transform="rotate(338.4 50 50)">
  <rect x="44.5" y="28" rx="5.5" ry="5" width="11" height="10" fill="#f90000">
    <animate attributeName="opacity" values="1;0" keyTimes="0;1" dur="0.5714285714285714s" begin="-0.02857142857142857s" repeatCount="indefinite"></animate>
  </rect>
</g><g transform="rotate(342 50 50)">
  <rect x="44.5" y="28" rx="5.5" ry="5" width="11" height="10" fill="#f90000">
    <animate attributeName="opacity" values="1;0" keyTimes="0;1" dur="0.5714285714285714s" begin="-0.022857142857142857s" repeatCount="indefinite"></animate>
  </rect>
</g><g transform="rotate(345.6 50 50)">
  <rect x="44.5" y="28" rx="5.5" ry="5" width="11" height="10" fill="#f90000">
    <animate attributeName="opacity" values="1;0" keyTimes="0;1" dur="0.5714285714285714s" begin="-0.017142857142857144s" repeatCount="indefinite"></animate>
  </rect>
</g><g transform="rotate(349.2 50 50)">
  <rect x="44.5" y="28" rx="5.5" ry="5" width="11" height="10" fill="#f90000">
    <animate attributeName="opacity" values="1;0" keyTimes="0;1" dur="0.5714285714285714s" begin="-0.011428571428571429s" repeatCount="indefinite"></animate>
  </rect>
</g><g transform="rotate(352.8 50 50)">
  <rect x="44.5" y="28" rx="5.5" ry="5" width="11" height="10" fill="#f90000">
    <animate attributeName="opacity" values="1;0" keyTimes="0;1" dur="0.5714285714285714s" begin="-0.005714285714285714s" repeatCount="indefinite"></animate>
  </rect>
</g><g transform="rotate(356.4 50 50)">
  <rect x="44.5" y="28" rx="5.5" ry="5" width="11" height="10" fill="#f90000">
    <animate attributeName="opacity" values="1;0" keyTimes="0;1" dur="0.5714285714285714s" begin="0s" repeatCount="indefinite"></animate>
  </rect>
</g>
<!-- [ldio] generated by https://loading.io/ --></svg>